<svg viewBox="0 0 140 34" fill="none" xmlns="http://www.w3.org/2000/svg"><path d="M36.8 12H51v2.6h-5.6v14.6h-3V14.6h-5.6V12zm13.6 4.7H53v2.4l.5-1a4.6 4.6 0 0 1 2-1.5 3.5 3.5 0 0 1 1.2-.2h1.1v2.7a9 9 0 0 0-.6 0 5.2 5.2 0 0 0-.6-.1c-.5 0-1 0-1.4.3a3 3 0 0 0-1 .8 4.1 4.1 0 0 0-.8 1.3c-.2.5-.3 1.1-.3 1.8v6h-2.8V16.7zm20.2 12.5H68v-1.8c-.4.7-1 1.2-1.6 1.5-.7.4-1.4.6-2 .6-1.8 0-3-.4-3.7-1.2-.7-.8-1.1-2-1.1-3.7v-7.9h2.8v7.7c0 1 .2 1.8.6 2.3.4.4 1 .6 1.8.6.6 0 1 0 1.5-.2l1-.7.5-1.1.1-1.3v-7.3h2.8v12.5zm4.8-4c0 .8.4 1.3.9 1.7.5.3 1.2.5 2 .5l.8-.1 1-.2.7-.5c.2-.3.3-.5.3-.9a1.2 1.2 0 0 0-.4-.9l-1-.5a9.6 9.6 0 0 0-1.3-.3l-1.5-.4a14.4 14.4 0 0 1-1.5-.4 4.6 4.6 0 0 1-1.3-.6 2.9 2.9 0 0 1-.9-1c-.2-.5-.3-1-.3-1.7 0-.6.1-1.2.5-1.7a3.8 3.8 0 0 1 1.2-1 6 6 0 0 1 1.8-.7l1.8-.1c.6 0 1.2 0 1.8.2a4.9 4.9 0 0 1 1.7.7 4 4 0 0 1 1.8 3h-3c-.1-.7-.4-1.2-.9-1.4-.5-.2-1-.4-1.6-.4l-.7.1a4 4 0 0 0-.8.2 1.7 1.7 0 0 0-.6.4 1 1 0 0 0-.3.6c0 .4.2.6.4.8.2.3.5.4 1 .6l1.2.3 1.6.3 1.5.5c.5.1.9.3 1.3.6s.7.6.9 1c.2.5.4 1 .4 1.6 0 .7-.2 1.3-.6 1.9a4 4 0 0 1-1.3 1.2 6.3 6.3 0 0 1-1.8.7 9.3 9.3 0 0 1-2 .2 8.6 8.6 0 0 1-2.2-.2c-.7-.2-1.3-.5-1.8-.8A4 4 0 0 1 73 27c-.3-.5-.4-1.2-.4-1.9h2.8zm9.2-8.5h2.1V13h2.8v3.7H92v2h-2.5v7.5l.2.5a.8.8 0 0 0 .4.3l.8.1H92v2l-.9.2a7.4 7.4 0 0 1-.9 0c-.7 0-1.3 0-1.7-.2-.5-.1-.8-.3-1-.6a2 2 0 0 1-.6-1 7.3 7.3 0 0 1-.2-1.4v-7.3h-2v-2h-.1zm9.4 0h2.6v1.7c.5-.7 1-1.2 1.7-1.5a5.5 5.5 0 0 1 2.3-.5c1 0 1.9.1 2.6.5a5 5 0 0 1 1.9 1.4c.5.6.8 1.3 1 2.1a8.7 8.7 0 0 1 .5 2.6c0 .8-.2 1.7-.4 2.4a6.4 6.4 0 0 1-1 2.1 4.9 4.9 0 0 1-1.7 1.5c-.7.3-1.5.5-2.4.5a7 7 0 0 1-1.2-.1 5.5 5.5 0 0 1-1.2-.4 4.3 4.3 0 0 1-1-.6 3.9 3.9 0 0 1-.9-.8v6.2H94v-17zm9.8 6.3a6.1 6.1 0 0 0-.3-1.7 4.4 4.4 0 0 0-.6-1.4 3.4 3.4 0 0 0-1.1-1 3.1 3.1 0 0 0-1.6-.4c-1.1 0-2 .4-2.6 1.3-.6.8-.9 1.8-.9 3.2 0 .6 0 1.2.2 1.7l.7 1.4a3.3 3.3 0 0 0 2.7 1.2c.6 0 1.1-.1 1.6-.4a3.4 3.4 0 0 0 1-1c.4-.4.6-.8.7-1.3a7.7 7.7 0 0 0 .2-1.6zm4.9-11h2.8v2.6h-2.8V12zm0 4.7h2.8v12.5h-2.8V16.7zM114 12h2.8v17.2H114V12zm11.3 17.5c-1 0-1.9-.2-2.7-.5a6 6 0 0 1-2-1.3 6 6 0 0 1-1.2-2.1 7.9 7.9 0 0 1-.5-2.7c0-1 .2-1.8.5-2.6a6 6 0 0 1 1.2-2c.6-.6 1.2-1.1 2-1.4a7 7 0 0 1 2.7-.5c1 0 2 .1 2.7.5a6 6 0 0 1 2 1.3 5.9 5.9 0 0 1 1.3 2.1c.3.8.4 1.7.4 2.6 0 1-.1 1.9-.4 2.7a5.9 5.9 0 0 1-1.2 2c-.6.6-1.3 1-2 1.4a7 7 0 0 1-2.8.5zm0-2.2c.7 0 1.2-.1 1.7-.4a3.4 3.4 0 0 0 1-1c.4-.4.6-.8.7-1.4a6.3 6.3 0 0 0 0-3.2 4.1 4.1 0 0 0-.6-1.4 3.4 3.4 0 0 0-1.1-1c-.5-.2-1-.4-1.7-.4-.6 0-1.1.2-1.6.4a3.5 3.5 0 0 0-1.1 1 4.3 4.3 0 0 0-.7 1.4 6.4 6.4 0 0 0-.2 1.6l.2 1.6a3.8 3.8 0 0 0 1.8 2.4c.5.3 1 .4 1.6.4zm7.2-10.6h2.2V13h2.8v3.7h2.5v2h-2.5v7.5c0 .2 0 .4.2.5a.8.8 0 0 0 .4.3l.7.1h1.2v2l-.9.2a7.4 7.4 0 0 1-.9 0c-.7 0-1.3 0-1.8-.2-.4-.1-.8-.3-1-.6-.3-.3-.5-.6-.6-1a7.4 7.4 0 0 1-.1-1.4v-7.3h-2.1v-2z" fill="#fff"/><path d="M33.5 12H20.7l-4-12-3.9 12H0l10.4 7.4-4 12 10.4-7.5L27 31.3l-4-12L33.6 12z" fill="#04DA8D"/><path d="m24 22-.8-2.6-6.4 4.5 7.3-1.8z" fill="#126849"/></svg>